<svg viewBox="0 0 1920 1080" xmlns="http://www.w3.org/2000/svg"><defs><filter id="b" x="-200%" y="-200%" width="500%" height="500%"><feGaussianBlur in="SourceGraphic" stdDeviation="20"/></filter></defs><path fill="#000336" d="M0 0h1920v1080H0z"/><ellipse cx="1221.848" cy="1.287" rx="2.172" ry="2.065" fill="#fff" opacity=".163"/><ellipse cx="1470.742" cy="4.457" rx="1.686" ry="1.669" fill="#fff" opacity=".17"/><ellipse cx="380.398" cy="6.697" rx="1.753" ry="1.634" fill="#fff" opacity=".81"/><ellipse cx="788.474" cy="9.779" rx="3.274" ry="2.916" fill="#fff" opacity=".271"/><ellipse cx="1048.972" cy="13.611" rx="3.466" ry="2.977" fill="#fff" opacity="-.016"/><ellipse cx="923.21" cy="16.031" rx="2.423" ry="1.994" fill="#fff" opacity=".6"/><ellipse cx="885.946" cy="18.879" rx="3.389" ry="2.937" fill="#fff" opacity=".723"/><ellipse cx="545.711" cy="22.111" rx="2" ry="1.522" fill="#fff" opacity=".773"/><ellipse cx="825.816" cy="25.516" rx="2.869" ry="2.466" fill="#fff" opacity=".564"/><ellipse cx="621.268" cy="29.97" rx="3.021" ry="2.608" fill="#fff" opacity=".637"/><ellipse cx="1782.004" cy="30.246" rx="2.191" ry="1.998" fill="#fff" opacity="-.092"/><ellipse cx="1680.601" cy="34.662" rx="2.75" ry="2.634" fill="#fff" opacity=".11"/><ellipse cx="609.869" cy="38.467" rx="2.905" ry="2.765" fill="#fff" opacity=".251"/><ellipse cx="7.086" cy="40.696" rx="2.566" ry="2.129" fill="#fff" opacity=".108"/><ellipse cx="1624.471" cy="44.755" rx="3.073" ry="2.612" fill="#fff" opacity=".281"/><ellipse cx="156.211" cy="46.62" rx="2.837" ry="2.652" fill="#fff" opacity=".687"/><ellipse cx="435.968" cy="48.652" rx="2.368" ry="1.901" fill="#fff" opacity=".186"/><ellipse cx="737.353" cy="53.922" rx="2.507" ry="2.446" fill="#fff" opacity=".127"/><ellipse cx="1526.823" cy="56.93" rx="2.198" ry="1.724" fill="#fff" opacity=".451"/><ellipse cx="879.547" cy="59.171" rx="2.365" ry="2.163" fill="#fff" opacity="-.039"/><ellipse cx="1361.039" cy="61.725" rx="3.038" ry="2.619" fill="#fff" opacity=".232"/><ellipse cx="352.247" cy="63.931" rx="3.135" ry="2.823" fill="#fff" opacity="-.01"/><ellipse cx="779.43" cy="66.874" rx="2.558" ry="2.286" fill="#fff" opacity=".744"/><ellipse cx="1263.312" cy="71.826" rx="3.039" ry="2.974" fill="#fff" opacity="-.008"/><ellipse cx="358.461" cy="72.672" rx="2.025" ry="1.782" fill="#fff" opacity="-.04"/><ellipse cx="568.786" cy="76.48" rx="2.359" ry="2.093" fill="#fff" opacity="-.187"/><ellipse cx="327.839" cy="78.721" rx="1.735" ry="1.512" fill="#fff" opacity=".735"/><ellipse cx="1451.418" cy="82.672" rx="2.62" ry="2.321" fill="#fff" opacity=".348"/><ellipse cx="1562.721" cy="85.125" rx="2.19" ry="2.027" fill="#fff" opacity=".468"/><ellipse cx="1646.007" cy="87.875" rx="2.822" ry="2.341" fill="#fff" opacity=".125"/><ellipse cx="1908.005" cy="91.209" rx="2.185" ry="1.884" fill="#fff" opacity=".251"/><ellipse cx="1640.583" cy="94.834" rx="3.246" ry="2.911" fill="#fff" opacity=".141"/><ellipse cx="619.258" cy="97.45" rx="2.455" ry="1.978" fill="#fff" opacity=".686"/><ellipse cx="1393.962" cy="100.219" rx="2.54" ry="2.403" fill="#fff" opacity=".398"/><ellipse cx="1878.814" cy="104.748" rx="3.089" ry="2.882" fill="#fff" opacity=".085"/><ellipse cx="1181.537" cy="107.898" rx="2.161" ry="1.802" fill="#fff" opacity=".49"/><ellipse cx="1178.478" cy="110.541" rx="2.539" ry="2.29" fill="#fff" opacity=".934"/><ellipse cx="86.051" cy="113.439" rx="1.613" ry="1.527" fill="#fff" opacity="-.036"/><ellipse cx="665.944" cy="115.314" rx="2.141" ry="1.849" fill="#fff" opacity="-.161"/><ellipse cx="909.96" cy="117.607" rx="1.665" ry="1.526" fill="#fff" opacity=".53"/><ellipse cx="959.009" cy="121.526" rx="2.606" ry="2.343" fill="#fff" opacity=".425"/><ellipse cx="64.759" cy="124.447" rx="2.607" ry="2.311" fill="#fff" opacity=".885"/><ellipse cx="1332.568" cy="126.76" rx="2.19" ry="1.813" fill="#fff" opacity="-.093"/><ellipse cx="678.66" cy="130.239" rx="2.255" ry="1.76" fill="#fff" opacity=".288"/><ellipse cx="875.415" cy="134.508" rx="1.84" ry="1.716" fill="#fff" opacity=".445"/><ellipse cx="886.561" cy="135.333" rx="3.26" ry="2.936" fill="#fff" opacity=".644"/><ellipse cx="325.596" cy="139.465" rx="2.617" ry="2.136" fill="#fff" opacity=".611"/><ellipse cx="1237.787" cy="143.997" rx="2.753" ry="2.352" fill="#fff" opacity="-.022"/><ellipse cx="1616.553" cy="145.656" rx="2.296" ry="2.129" fill="#fff" opacity=".618"/><ellipse cx="895.787" cy="147.47" rx="2.551" ry="2.283" fill="#fff" opacity=".46"/><ellipse cx="261.141" cy="150.335" rx="2.236" ry="2.218" fill="#fff" opacity=".221"/><ellipse cx="170.192" cy="153.694" rx="1.873" ry="1.744" fill="#fff" opacity=".244"/><ellipse cx="1273.011" cy="157.939" rx="2.121" ry="1.672" fill="#fff" opacity=".736"/><ellipse cx="1238.95" cy="159.145" rx="3.215" ry="2.834" fill="#fff" opacity="-.047"/><ellipse cx="989.036" cy="164.912" rx="2.849" ry="2.527" fill="#fff" opacity=".176"/><ellipse cx="128.466" cy="165.415" rx="2.631" ry="2.607" fill="#fff" opacity=".221"/><ellipse cx="960.721" cy="170.535" rx="2.271" ry="1.932" fill="#fff" opacity=".804"/><ellipse cx="376.96" cy="173.691" rx="3.393" ry="2.995" fill="#fff" opacity=".259"/><ellipse cx="1229.011" cy="174.349" rx="3.224" ry="2.915" fill="#fff" opacity=".951"/><ellipse cx="1726.925" cy="177.275" rx="2.175" ry="2.09" fill="#fff" opacity=".38"/><ellipse cx="694.291" cy="181.474" rx="1.644" ry="1.524" fill="#fff" opacity=".336"/><ellipse cx="607.485" cy="183.743" rx="3.236" ry="2.864" fill="#fff" opacity=".37"/><ellipse cx="1360.32" cy="187.871" rx="2.094" ry="1.837" fill="#fff" opacity=".325"/><ellipse cx="95.572" cy="190.915" rx="2.093" ry="2.056" fill="#fff" opacity=".036"/><ellipse cx="450.375" cy="194.336" rx="1.559" ry="1.531" fill="#fff" opacity=".828"/><ellipse cx="489.922" cy="196.887" rx="2.571" ry="2.261" fill="#fff" opacity=".444"/><ellipse cx="313.524" cy="200.422" rx="2.272" ry="1.973" fill="#fff" opacity=".497"/><ellipse cx="1580.326" cy="202.343" rx="2.662" ry="2.413" fill="#fff" opacity=".249"/><ellipse cx="1879.983" cy="204.464" rx="2.095" ry="1.936" fill="#fff" opacity="-.027"/><ellipse cx="164.86" cy="207.846" rx="1.759" ry="1.56" fill="#fff" opacity=".746"/><ellipse cx="1901.133" cy="212.243" rx="2.839" ry="2.465" fill="#fff" opacity=".232"/><ellipse cx="669.282" cy="214.304" rx="2.049" ry="1.668" fill="#fff" opacity=".096"/><ellipse cx="810.508" cy="216.755" rx="2.23" ry="1.798" fill="#fff" opacity=".585"/><ellipse cx="318.727" cy="219.031" rx="2.348" ry="1.868" fill="#fff" opacity=".248"/><ellipse cx="1652.413" cy="222.055" rx="3.03" ry="2.687" fill="#fff" opacity=".716"/><ellipse cx="1818.065" cy="225.285" rx="2.683" ry="2.277" fill="#fff" opacity=".678"/><ellipse cx="267.786" cy="228.862" rx="3.236" ry="2.799" fill="#fff" opacity=".512"/><ellipse cx="1415.043" cy="232.791" rx="1.869" ry="1.688" fill="#fff" opacity=".194"/><ellipse cx="1678.168" cy="234.186" rx="2.105" ry="1.93" fill="#fff" opacity=".212"/><ellipse cx="1801.804" cy="238.108" rx="2.559" ry="2.468" fill="#fff" opacity=".531"/><ellipse cx="711.933" cy="241.982" rx="2.516" ry="2.123" fill="#fff" opacity=".707"/><ellipse cx="1684.207" cy="243.8" rx="1.909" ry="1.781" fill="#fff" opacity=".68"/><ellipse cx="1201.319" cy="247.381" rx="3.305" ry="2.83" fill="#fff" opacity=".383"/><ellipse cx="1734.228" cy="251.748" rx="1.729" ry="1.557" fill="#fff" opacity=".655"/><ellipse cx="34.82" cy="254.732" rx="2.058" ry="1.681" fill="#fff" opacity=".375"/><ellipse cx="1808.992" cy="257.3" rx="2.156" ry="1.979" fill="#fff" opacity=".491"/><ellipse cx="604.918" cy="258.276" rx="2.073" ry="1.778" fill="#fff" opacity="-.029"/><ellipse cx="338.351" cy="262.833" rx="2.295" ry="2.17" fill="#fff" opacity=".192"/><ellipse cx="429.707" cy="265.262" rx="2.741" ry="2.503" fill="#fff" opacity=".813"/><ellipse cx="1577.373" cy="267.179" rx="2.853" ry="2.571" fill="#fff" opacity=".01"/><ellipse cx="1186.638" cy="271.818" rx="3.102" ry="2.87" fill="#fff" opacity="-.207"/><ellipse cx="323.136" cy="275.343" rx="2.479" ry="2.263" fill="#fff" opacity="-.164"/><ellipse cx="769.505" cy="278.845" rx="3.459" ry="2.99" fill="#fff" opacity=".554"/><ellipse cx="385.972" cy="279.051" rx="2.188" ry="1.765" fill="#fff" opacity=".153"/><ellipse cx="45.973" cy="283.255" rx="3.221" ry="2.793" fill="#fff" opacity=".081"/><ellipse cx="63.564" cy="287.016" rx="1.972" ry="1.592" fill="#fff" opacity=".533"/><ellipse cx="628.583" cy="288.039" rx="2.745" ry="2.591" fill="#fff" opacity="-.126"/><ellipse cx="1212.055" cy="292.233" rx="3.156" ry="2.985" fill="#fff" opacity=".624"/><ellipse cx="732.259" cy="294.227" rx="2.104" ry="2.067" fill="#fff" opacity=".455"/><ellipse cx="268.971" cy="298.735" rx="2.643" ry="2.149" fill="#fff" opacity=".614"/><ellipse cx="1376.13" cy="302.546" rx="2.114" ry="1.963" fill="#fff" opacity=".221"/><ellipse cx="1153.911" cy="305.96" rx="3.162" ry="2.667" fill="#fff" opacity=".515"/><ellipse cx="1752.461" cy="306.295" rx="2.018" ry="1.931" fill="#fff" opacity=".213"/><ellipse cx="1760.56" cy="311.474" rx="2.205" ry="2.086" fill="#fff" opacity=".282"/><ellipse cx="170.858" cy="313.971" rx="2.896" ry="2.405" fill="#fff" opacity=".91"/><ellipse cx="46.707" cy="317.217" rx="1.815" ry="1.796" fill="#fff" opacity=".469"/><ellipse cx="378.309" cy="318.388" rx="3.088" ry="2.688" fill="#fff" opacity=".313"/><ellipse cx="347.225" cy="321.761" rx="3.188" ry="2.782" fill="#fff" opacity=".121"/><ellipse cx="634.76" cy="324.25" rx="1.874" ry="1.757" fill="#fff" opacity=".478"/><ellipse cx="266.508" cy="328.482" rx="2.546" ry="2.152" fill="#fff" opacity="-.062"/><ellipse cx="1904.23" cy="331.32" rx="2.118" ry="1.746" fill="#fff" opacity="-.103"/><ellipse cx="1700.557" cy="335.299" rx="3.258" ry="2.953" fill="#fff" opacity=".292"/><ellipse cx="405.457" cy="337.547" rx="2.496" ry="2.097" fill="#fff" opacity=".534"/><ellipse cx="783.754" cy="341.466" rx="2.904" ry="2.856" fill="#fff" opacity=".72"/><ellipse cx="1852.01" cy="343.213" rx="2.47" ry="2.353" fill="#fff" opacity=".529"/><ellipse cx="1270.871" cy="345.391" rx="2.06" ry="1.579" fill="#fff" opacity=".877"/><ellipse cx="1462.38" cy="350.101" rx="2.798" ry="2.594" fill="#fff" opacity=".098"/><ellipse cx="568.069" cy="353.003" rx="2.058" ry="1.902" fill="#fff" opacity=".562"/><ellipse cx="1693.36" cy="356.073" rx="3.051" ry="2.575" fill="#fff" opacity=".279"/><ellipse cx="879.325" cy="358.864" rx="2.51" ry="2.389" fill="#fff" opacity=".088"/><ellipse cx="1912.772" cy="361.271" rx="2.855" ry="2.777" fill="#fff" opacity=".698"/><ellipse cx="337.059" cy="363.984" rx="2.085" ry="1.774" fill="#fff" opacity=".617"/><ellipse cx="1037.634" cy="368.663" rx="2.691" ry="2.3" fill="#fff" opacity=".809"/><ellipse cx="1235.81" cy="371.331" rx="2.151" ry="1.966" fill="#fff" opacity=".245"/><ellipse cx="1847.902" cy="374.936" rx="1.945" ry="1.792" fill="#fff" opacity=".27"/><ellipse cx="68.521" cy="377.934" rx="2.337" ry="1.992" fill="#fff" opacity=".579"/><ellipse cx="1588.431" cy="379.307" rx="3.023" ry="2.638" fill="#fff" opacity=".644"/><ellipse cx="1777.357" cy="382.171" rx="2.135" ry="2.108" fill="#fff" opacity=".692"/><ellipse cx="1203.638" cy="386.245" rx="3.404" ry="2.996" fill="#fff" opacity=".302"/><ellipse cx="1733.295" cy="388.267" rx="2.6" ry="2.343" fill="#fff" opacity=".524"/><ellipse cx="1166.727" cy="392.088" rx="2.935" ry="2.535" fill="#fff" opacity=".807"/><ellipse cx="985.276" cy="394.628" rx="2.042" ry="1.714" fill="#fff" opacity=".662"/><ellipse cx="564.172" cy="396.246" rx="2.922" ry="2.443" fill="#fff" opacity=".162"/><ellipse cx="172.322" cy="401.414" rx="2.594" ry="2.293" fill="#fff" opacity=".553"/><ellipse cx="615.942" cy="403.335" rx="1.924" ry="1.805" fill="#fff" opacity=".517"/><ellipse cx="847.098" cy="405.559" rx="1.575" ry="1.569" fill="#fff" opacity=".43"/><ellipse cx="133.437" cy="408.506" rx="1.803" ry="1.708" fill="#fff" opacity=".222"/><ellipse cx="911.877" cy="412.483" rx="2.139" ry="1.94" fill="#fff" opacity=".45"/><ellipse cx="281.103" cy="416.161" rx="1.664" ry="1.526" fill="#fff" opacity="-.162"/><ellipse cx="38.491" cy="418.02" rx="2.12" ry="1.717" fill="#fff" opacity=".941"/><ellipse cx="1447.496" cy="421.15" rx="1.981" ry="1.68" fill="#fff" opacity="-.071"/><ellipse cx="1632.24" cy="424.797" rx="2.776" ry="2.735" fill="#fff" opacity=".686"/><ellipse cx="1458.418" cy="426.642" rx="2.327" ry="2.261" fill="#fff" opacity=".42"/><ellipse cx="1375.414" cy="430.262" rx="2.27" ry="2.258" fill="#fff" opacity=".296"/><ellipse cx="425.24" cy="433.403" rx="2.504" ry="2.473" fill="#fff" opacity=".821"/><ellipse cx="1145.391" cy="435.601" rx="3.309" ry="2.956" fill="#fff" opacity=".402"/><ellipse cx="1085.469" cy="439.635" rx="1.851" ry="1.572" fill="#fff" opacity="-.21"/><ellipse cx="1094.077" cy="441.668" rx="3.345" ry="2.953" fill="#fff" opacity="-.055"/><ellipse cx="724.259" cy="445.685" rx="2.511" ry="2.239" fill="#fff" opacity=".39"/><ellipse cx="646.184" cy="448.458" rx="2.4" ry="2.367" fill="#fff" opacity=".9"/><ellipse cx="1893.132" cy="450.575" rx="1.912" ry="1.779" fill="#fff" opacity=".153"/><ellipse cx="191.718" cy="454.331" rx="2.679" ry="2.596" fill="#fff" opacity=".434"/><ellipse cx="442.977" cy="456.615" rx="2.313" ry="1.833" fill="#fff" opacity=".777"/><ellipse cx="711.324" cy="461.151" rx="2.09" ry="1.874" fill="#fff" opacity=".002"/><ellipse cx="568.656" cy="462.656" rx="2.607" ry="2.112" fill="#fff" opacity=".681"/><ellipse cx="565.741" cy="467.763" rx="2.831" ry="2.826" fill="#fff" opacity=".095"/><ellipse cx="824.51" cy="469.363" rx="2.536" ry="2.123" fill="#fff" opacity=".16"/><ellipse cx="190.473" cy="472.435" rx="1.741" ry="1.606" fill="#fff" opacity=".366"/><ellipse cx="983.782" cy="476.287" rx="2.291" ry="2.087" fill="#fff" opacity="-.052"/><ellipse cx="1747.945" cy="479.804" rx="2.951" ry="2.792" fill="#fff" opacity=".598"/><ellipse cx="715.487" cy="482.776" rx="2.189" ry="1.8" fill="#fff" opacity="-.007"/><ellipse cx="769.418" cy="483.748" rx="2.202" ry="1.963" fill="#fff" opacity=".818"/><ellipse cx="725.722" cy="488.385" rx="3.151" ry="2.791" fill="#fff" opacity=".221"/><ellipse cx="1093.748" cy="490.132" rx="1.99" ry="1.842" fill="#fff" opacity="-.194"/><ellipse cx="433.019" cy="494.817" rx="2.914" ry="2.71" fill="#fff" opacity="-.111"/><ellipse cx="1669.684" cy="495.165" rx="2.962" ry="2.706" fill="#fff" opacity=".957"/><ellipse cx="858.807" cy="499.314" rx="3.016" ry="2.646" fill="#fff" opacity=".1"/><ellipse cx="886.642" cy="502.539" rx="2.388" ry="2.045" fill="#fff" opacity=".657"/><ellipse cx="57.711" cy="506.314" rx="2.514" ry="2.294" fill="#fff" opacity=".684"/><ellipse cx="1686.966" cy="508.909" rx="3.006" ry="2.986" fill="#fff" opacity=".26"/><ellipse cx="1594.174" cy="510.972" rx="1.864" ry="1.624" fill="#fff" opacity=".493"/><ellipse cx="84.127" cy="514.552" rx="2.315" ry="1.921" fill="#fff" opacity=".375"/><ellipse cx="1506.025" cy="517.027" rx="1.635" ry="1.512" fill="#fff" opacity=".118"/><ellipse cx="1598.173" cy="519.463" rx="2.749" ry="2.656" fill="#fff" opacity=".208"/><ellipse cx="745.258" cy="522.596" rx="1.832" ry="1.713" fill="#fff" opacity=".275"/><ellipse cx="1413.208" cy="526.297" rx="2.94" ry="2.731" fill="#fff" opacity=".622"/><ellipse cx="1533.557" cy="528.605" rx="2.437" ry="2.394" fill="#fff" opacity=".43"/><ellipse cx="1164.116" cy="533.297" rx="2.684" ry="2.439" fill="#fff" opacity=".461"/><ellipse cx="1680.203" cy="534.045" rx="2.697" ry="2.691" fill="#fff" opacity=".361"/><ellipse cx="116.14" cy="538.092" rx="2.742" ry="2.324" fill="#fff" opacity="-.102"/><ellipse cx="1501.197" cy="541.903" rx="2.699" ry="2.466" fill="#fff" opacity=".165"/><ellipse cx="359.381" cy="543.2" rx="3.127" ry="2.649" fill="#fff" opacity=".809"/><ellipse cx="221.143" cy="547.942" rx="1.973" ry="1.564" fill="#fff" opacity="-.04"/><ellipse cx="1178.026" cy="551.384" rx="2.54" ry="2.295" fill="#fff" opacity=".304"/><ellipse cx="1337.044" cy="552.275" rx="1.975" ry="1.755" fill="#fff" opacity=".229"/><ellipse cx="459.109" cy="555.23" rx="2.025" ry="1.907" fill="#fff" opacity=".301"/><ellipse cx="1217.729" cy="559.355" rx="2.266" ry="1.915" fill="#fff" opacity=".209"/><ellipse cx="1231.573" cy="562.195" rx="3.317" ry="2.83" fill="#fff" opacity=".066"/><ellipse cx="378.722" cy="566.743" rx="3.353" ry="2.877" fill="#fff" opacity=".213"/><ellipse cx="324.947" cy="569.044" rx="2.205" ry="2.145" fill="#fff" opacity=".117"/><ellipse cx="1044.187" cy="570.973" rx="2.506" ry="2.475" fill="#fff" opacity=".1"/><ellipse cx="1574.967" cy="574.493" rx="1.786" ry="1.584" fill="#fff" opacity=".068"/><ellipse cx="1085.924" cy="578.522" rx="2.401" ry="2.168" fill="#fff" opacity=".119"/><ellipse cx="623.382" cy="580.966" rx="1.891" ry="1.617" fill="#fff" opacity=".162"/><ellipse cx="748.319" cy="582.947" rx="2.303" ry="2.237" fill="#fff" opacity=".738"/><ellipse cx="928.504" cy="587.937" rx="2.478" ry="2.116" fill="#fff" opacity=".552"/><ellipse cx="1860.175" cy="590.99" rx="2.783" ry="2.434" fill="#fff" opacity=".869"/><ellipse cx="229.488" cy="592.637" rx="3.108" ry="2.87" fill="#fff" opacity=".943"/><ellipse cx="1321.092" cy="594.311" rx="3.071" ry="2.874" fill="#fff" opacity=".351"/><ellipse cx="1293.621" cy="597.845" rx="2.462" ry="2.181" fill="#fff" opacity=".646"/><ellipse cx="1561.703" cy="601.755" rx="3.247" ry="2.925" fill="#fff" opacity=".523"/><ellipse cx="53.986" cy="603.963" rx="2.901" ry="2.688" fill="#fff" opacity=".502"/><ellipse cx="1196.876" cy="606.588" rx="2.755" ry="2.553" fill="#fff" opacity="-.062"/><ellipse cx="817.904" cy="610.029" rx="1.947" ry="1.554" fill="#fff" opacity="-.149"/><ellipse cx="757.118" cy="613.98" rx="2.983" ry="2.974" fill="#fff" opacity="-.206"/><ellipse cx="1298.506" cy="615.858" rx="2.241" ry="1.949" fill="#fff" opacity=".131"/><ellipse cx="133.852" cy="618.319" rx="2.817" ry="2.383" fill="#fff" opacity=".144"/><ellipse cx="1138.531" cy="622.397" rx="3.141" ry="2.686" fill="#fff" opacity="-.039"/><ellipse cx="979.457" cy="626.291" rx="2.435" ry="2.333" fill="#fff" opacity=".188"/><ellipse cx="1466.46" cy="627.839" rx="3.192" ry="2.968" fill="#fff" opacity=".689"/><ellipse cx="1094.939" cy="632.843" rx="2.311" ry="2.259" fill="#fff" opacity=".226"/><ellipse cx="379.155" cy="634.491" rx="2.907" ry="2.634" fill="#fff" opacity=".038"/><ellipse cx="759.735" cy="637.977" rx="2.093" ry="1.969" fill="#fff" opacity=".813"/><ellipse cx="478.878" cy="640.419" rx="2.744" ry="2.572" fill="#fff" opacity="-.111"/><ellipse cx="1793.862" cy="642.008" rx="2.527" ry="2.289" fill="#fff" opacity=".372"/><ellipse cx="1432.34" cy="645.975" rx="3.032" ry="2.824" fill="#fff" opacity=".751"/><ellipse cx="1537.042" cy="649.537" rx="2.649" ry="2.177" fill="#fff" opacity=".945"/><ellipse cx="72.406" cy="652.252" rx="3.227" ry="2.891" fill="#fff" opacity=".376"/><ellipse cx="498.073" cy="656.48" rx="2.779" ry="2.769" fill="#fff" opacity=".042"/><ellipse cx="1392.098" cy="659.684" rx="2.553" ry="2.495" fill="#fff" opacity="-.244"/><ellipse cx="1691.661" cy="662.601" rx="2.516" ry="2.278" fill="#fff" opacity=".733"/><ellipse cx="1047.82" cy="663.904" rx="2.5" ry="2.337" fill="#fff" opacity=".344"/><ellipse cx="1287.415" cy="666.261" rx="2.446" ry="2.107" fill="#fff" opacity=".011"/><ellipse cx="1826.461" cy="670.65" rx="2.535" ry="2.44" fill="#fff" opacity=".043"/><ellipse cx="134.111" cy="674.747" rx="2.708" ry="2.336" fill="#fff" opacity=".56"/><ellipse cx="798.575" cy="676.381" rx="3.097" ry="2.713" fill="#fff" opacity="-.051"/><ellipse cx="1133.812" cy="679.668" rx="2.634" ry="2.626" fill="#fff" opacity=".712"/><ellipse cx="1416.926" cy="682.831" rx="3.015" ry="2.615" fill="#fff" opacity=".723"/><ellipse cx="312.251" cy="685.018" rx="2.735" ry="2.542" fill="#fff" opacity=".117"/><ellipse cx="1267.314" cy="687.419" rx="2.06" ry="2.022" fill="#fff" opacity=".647"/><ellipse cx="1408.234" cy="691.028" rx="2.919" ry="2.475" fill="#fff" opacity=".073"/><ellipse cx="298.278" cy="693.75" rx="2.223" ry="1.858" fill="#fff" opacity=".273"/><ellipse cx="845.766" cy="698.081" rx="3.075" ry="2.945" fill="#fff" opacity=".24"/><ellipse cx="419.868" cy="700.345" rx="2.787" ry="2.75" fill="#fff" opacity=".493"/><ellipse cx="1558.556" cy="702.671" rx="3.158" ry="2.66" fill="#fff" opacity=".855"/><ellipse cx="1143.182" cy="707.766" rx="1.905" ry="1.533" fill="#fff" opacity=".842"/><ellipse cx="737.329" cy="709.445" rx="1.991" ry="1.634" fill="#fff" opacity=".323"/><ellipse cx="879.368" cy="711.778" rx="1.719" ry="1.71" fill="#fff" opacity=".228"/><ellipse cx="481.693" cy="716.689" rx="3.074" ry="2.961" fill="#fff" opacity=".125"/><ellipse cx="98.858" cy="717.163" rx="2.746" ry="2.362" fill="#fff" opacity=".259"/><ellipse cx="25.239" cy="722.461" rx="2.78" ry="2.753" fill="#fff" opacity=".586"/><ellipse cx="1857.884" cy="723.384" rx="2.932" ry="2.909" fill="#fff" opacity=".31"/><ellipse cx=".501" cy="727.597" rx="2.641" ry="2.244" fill="#fff" opacity=".059"/><ellipse cx="1048.17" cy="731.611" rx="2.458" ry="2.096" fill="#fff" opacity=".524"/><ellipse cx="497.654" cy="734.926" rx="2.36" ry="2.092" fill="#fff" opacity=".678"/><ellipse cx="800.923" cy="735.753" rx="2.421" ry="2.099" fill="#fff" opacity=".085"/><ellipse cx="1236.474" cy="739.985" rx="2.148" ry="1.818" fill="#fff" opacity="-.223"/><ellipse cx="1728.406" cy="743.107" rx="1.89" ry="1.883" fill="#fff" opacity=".064"/><ellipse cx="466.436" cy="746.441" rx="2.297" ry="2.082" fill="#fff" opacity=".143"/><ellipse cx="843.297" cy="749.564" rx="2.223" ry="2.001" fill="#fff" opacity="-.024"/><ellipse cx="80.591" cy="752.81" rx="2.77" ry="2.732" fill="#fff" opacity=".404"/><ellipse cx="788.266" cy="755.965" rx="1.749" ry="1.692" fill="#fff" opacity=".871"/><ellipse cx="62.724" cy="758.505" rx="2.772" ry="2.29" fill="#fff" opacity=".319"/><ellipse cx="183.431" cy="759.406" rx="2.682" ry="2.597" fill="#fff" opacity=".343"/><ellipse cx="1512.203" cy="764.378" rx="2.014" ry="1.599" fill="#fff" opacity=".396"/><ellipse cx="819.319" cy="765.682" rx="3.042" ry="2.609" fill="#fff" opacity=".232"/><ellipse cx="758.142" cy="770.2" rx="3.073" ry="2.745" fill="#fff" opacity=".545"/><ellipse cx="887.121" cy="773.979" rx="2.684" ry="2.472" fill="#fff" opacity=".771"/><ellipse cx="700.921" cy="774.314" rx="3.088" ry="2.616" fill="#fff" opacity=".449"/><ellipse cx="231.278" cy="778.874" rx="2.694" ry="2.509" fill="#fff" opacity=".373"/><ellipse cx="507.286" cy="781.965" rx="3.001" ry="2.807" fill="#fff" opacity=".133"/><ellipse cx="305.046" cy="785.244" rx="3.154" ry="2.975" fill="#fff" opacity=".438"/><ellipse cx="80.716" cy="786.656" rx="1.744" ry="1.675" fill="#fff" opacity=".488"/><ellipse cx="1236.195" cy="789.857" rx="1.938" ry="1.552" fill="#fff" opacity=".135"/><ellipse cx="1032.152" cy="792.652" rx="2.044" ry="1.856" fill="#fff" opacity=".389"/><ellipse cx="120.785" cy="797.862" rx="2.541" ry="2.416" fill="#fff" opacity=".208"/><ellipse cx="1217.184" cy="799.87" rx="2.967" ry="2.641" fill="#fff" opacity=".911"/><ellipse cx="776.898" cy="802.936" rx="1.921" ry="1.777" fill="#fff" opacity=".788"/><ellipse cx="1304.721" cy="805.702" rx="3.083" ry="2.944" fill="#fff" opacity=".466"/><ellipse cx="1913.538" cy="809.827" rx="2.985" ry="2.772" fill="#fff" opacity=".273"/><ellipse cx="133.789" cy="812.16" rx="2.937" ry="2.463" fill="#fff" opacity=".096"/><ellipse cx="825.164" cy="813.907" rx="2.5" ry="2.147" fill="#fff" opacity=".464"/><ellipse cx="837.158" cy="817.768" rx="2.947" ry="2.737" fill="#fff" opacity=".562"/><ellipse cx="1766.177" cy="819.774" rx="3.232" ry="2.989" fill="#fff" opacity=".689"/><ellipse cx="570.717" cy="824.91" rx="2.861" ry="2.5" fill="#fff" opacity=".739"/><ellipse cx="850.345" cy="826.436" rx="2.64" ry="2.567" fill="#fff" opacity=".279"/><ellipse cx="273.876" cy="828.45" rx="3.156" ry="2.817" fill="#fff" opacity=".155"/><ellipse cx="1088.64" cy="832.699" rx="2.835" ry="2.354" fill="#fff" opacity="-.169"/><ellipse cx="284.189" cy="836.758" rx="2.847" ry="2.51" fill="#fff" opacity=".179"/><ellipse cx="811.187" cy="837.538" rx="2.867" ry="2.785" fill="#fff" opacity=".085"/><ellipse cx="417.911" cy="841.769" rx="2.927" ry="2.836" fill="#fff" opacity="-.112"/><ellipse cx="1671.429" cy="845.499" rx="2.675" ry="2.564" fill="#fff" opacity=".115"/><ellipse cx="1887.871" cy="847.193" rx="2.157" ry="1.726" fill="#fff" opacity=".653"/><ellipse cx="20.725" cy="851.224" rx="2.107" ry="1.845" fill="#fff" opacity="-.047"/><ellipse cx="429.38" cy="853.164" rx="2.945" ry="2.906" fill="#fff" opacity=".618"/><ellipse cx="1882.506" cy="857.534" rx="2.27" ry="1.881" fill="#fff" opacity=".552"/><ellipse cx="103.259" cy="860.262" rx="1.902" ry="1.895" fill="#fff" opacity=".07"/><ellipse cx="1.222" cy="861.671" rx="1.914" ry="1.536" fill="#fff" opacity=".088"/><ellipse cx="207.684" cy="866.574" rx="2.746" ry="2.674" fill="#fff" opacity=".015"/><ellipse cx="362.49" cy="868.652" rx="2.296" ry="2.229" fill="#fff" opacity=".067"/><ellipse cx="630.427" cy="871.768" rx="1.841" ry="1.683" fill="#fff" opacity=".406"/><ellipse cx="1717.941" cy="874.228" rx="2.473" ry="2.414" fill="#fff" opacity=".216"/><ellipse cx="728.503" cy="876.317" rx="2.435" ry="2.006" fill="#fff" opacity=".772"/><ellipse cx="1116.29" cy="879.24" rx="3.083" ry="2.775" fill="#fff" opacity=".588"/><ellipse cx="1398.993" cy="883.852" rx="1.926" ry="1.864" fill="#fff" opacity=".705"/><ellipse cx="561.459" cy="887.9" rx="3.064" ry="2.628" fill="#fff" opacity=".65"/><ellipse cx="969.607" cy="889.89" rx="2.831" ry="2.379" fill="#fff" opacity=".054"/><ellipse cx="1282.702" cy="892.83" rx="2.735" ry="2.462" fill="#fff" opacity="-.239"/><ellipse cx="724.362" cy="894.799" rx="2.221" ry="2.09" fill="#fff" opacity=".355"/><ellipse cx="744.46" cy="898.119" rx="3.295" ry="2.848" fill="#fff" opacity=".114"/><ellipse cx="85.934" cy="900.473" rx="2.353" ry="2.268" fill="#fff" opacity=".889"/><ellipse cx="1231.718" cy="903.337" rx="1.599" ry="1.54" fill="#fff" opacity=".984"/><ellipse cx="491.605" cy="907.252" rx="3.223" ry="2.782" fill="#fff" opacity="-.261"/><ellipse cx="796.557" cy="910.687" rx="2.501" ry="2.326" fill="#fff" opacity=".55"/><ellipse cx="1204.028" cy="913.689" rx="3.029" ry="2.861" fill="#fff" opacity=".665"/><ellipse cx="130.937" cy="917.677" rx="1.941" ry="1.632" fill="#fff" opacity=".011"/><ellipse cx="295.119" cy="920.835" rx="3.032" ry="2.694" fill="#fff" opacity="-.052"/><ellipse cx="1369.607" cy="923.179" rx="1.69" ry="1.586" fill="#fff" opacity=".469"/><ellipse cx="110.87" cy="926.291" rx="1.91" ry="1.836" fill="#fff" opacity=".644"/><ellipse cx="1677.628" cy="927.885" rx="3.061" ry="2.802" fill="#fff" opacity=".756"/><ellipse cx="916.098" cy="932.786" rx="2.239" ry="2.219" fill="#fff" opacity=".718"/><ellipse cx="1869.891" cy="935.444" rx="2.88" ry="2.413" fill="#fff" opacity=".304"/><ellipse cx="585.869" cy="936.249" rx="1.92" ry="1.89" fill="#fff" opacity=".771"/><ellipse cx="1129.882" cy="939.55" rx="3.022" ry="2.919" fill="#fff" opacity=".656"/><ellipse cx="448.538" cy="942.736" rx="2.306" ry="1.931" fill="#fff" opacity="-.206"/><ellipse cx="1563.321" cy="946.15" rx="2.699" ry="2.533" fill="#fff" opacity="-.041"/><ellipse cx="640.462" cy="949.963" rx="1.937" ry="1.884" fill="#fff" opacity=".256"/><ellipse cx="1545.317" cy="952.707" rx="2.573" ry="2.324" fill="#fff" opacity=".101"/><ellipse cx="750.635" cy="956.916" rx="2.22" ry="2.065" fill="#fff" opacity=".392"/><ellipse cx="1302.37" cy="959.973" rx="2.36" ry="2.277" fill="#fff" opacity=".12"/><ellipse cx="7.835" cy="960.271" rx="2.018" ry="1.633" fill="#fff" opacity=".561"/><ellipse cx="104.038" cy="964.857" rx="2.243" ry="2.055" fill="#fff" opacity="-.009"/><ellipse cx="1227.224" cy="966.241" rx="3.124" ry="2.995" fill="#fff" opacity=".238"/><ellipse cx="1793.865" cy="970.379" rx="3.048" ry="2.707" fill="#fff" opacity=".045"/><ellipse cx="163.471" cy="974.339" rx="3.194" ry="2.951" fill="#fff" opacity=".254"/><ellipse cx="366.157" cy="975.905" rx="2.452" ry="2.363" fill="#fff" opacity=".95"/><ellipse cx="170.334" cy="980.415" rx="2.146" ry="1.812" fill="#fff" opacity="-.036"/><ellipse cx="1305.531" cy="983.739" rx="1.878" ry="1.736" fill="#fff" opacity="-.151"/><ellipse cx="403.757" cy="985.176" rx="1.863" ry="1.634" fill="#fff" opacity=".207"/><ellipse cx="880.654" cy="988.502" rx="1.818" ry="1.662" fill="#fff" opacity=".138"/><ellipse cx="1686.949" cy="991.836" rx="1.947" ry="1.559" fill="#fff" opacity="-.047"/><g transform="rotate(-60.77 126.662 26.606)"><defs><linearGradient id="a" x1="0" y1="1" x2="182.339" y2="1" gradientUnits="userSpaceOnUse"><stop stop-color="#fff"/><stop offset=".3" stop-color="#fff" stop-opacity=".1"/><stop offset=".7" stop-color="#fff" stop-opacity="0"/></linearGradient></defs><rect x="-9.117" y="-17.5" width="72.936" height="35" rx="35" ry="35" fill="url(#a)" filter="url(#b)" opacity=".4"/><rect width="109.404" height="13" rx="13" ry="13" fill="url(#a)"/></g><g transform="rotate(-62.084 1075.975 -1343.845)" fill="url(#a)"><rect x="-10.465" y="-17.5" width="83.716" height="35" rx="35" ry="35" filter="url(#b)" opacity=".4"/><rect width="125.574" height="13" rx="13" ry="13"/></g><g transform="rotate(-56.946 807.808 -335.92)" fill="url(#a)"><rect x="-13.136" y="-17.5" width="105.091" height="35" rx="35" ry="35" filter="url(#b)" opacity=".4"/><rect width="157.636" height="13" rx="13" ry="13"/></g><g transform="rotate(-64.639 960.465 -95.913)" fill="url(#a)"><rect x="-13.245" y="-17.5" width="105.962" height="35" rx="35" ry="35" filter="url(#b)" opacity=".4"/><rect width="158.943" height="13" rx="13" ry="13"/></g><g transform="rotate(-60.011 1052.594 81.41)" fill="url(#a)"><rect x="-10.66" y="-17.5" width="85.283" height="35" rx="35" ry="35" filter="url(#b)" opacity=".4"/><rect width="127.925" height="13" rx="13" ry="13"/></g></svg>